<?xml version="1.0" encoding="UTF-8" standalone="no"?>
<!DOCTYPE svg PUBLIC "-//W3C//DTD SVG 1.1//EN" "http://www.w3.org/Graphics/SVG/1.1/DTD/svg11.dtd">
<svg width="100%" height="100%" viewBox="0 0 610 119" version="1.1" xmlns="http://www.w3.org/2000/svg" xmlns:xlink="http://www.w3.org/1999/xlink" xml:space="preserve" xmlns:serif="http://www.serif.com/" style="fill-rule:evenodd;clip-rule:evenodd;stroke-linejoin:round;stroke-miterlimit:2;">
    <g transform="matrix(1,0,0,1,-18,-262)">
        <path d="M40.9,339.7C34.7,339.7 22.5,323.7 22.5,321.6C22.5,320.3 34.8,329.6 41,329.6C47.2,329.6 59.7,320.4 59.6,321.7C59.6,323.8 47.1,339.7 40.9,339.7Z" style="fill:rgb(44,160,44);fill-rule:nonzero;"/>
    </g>
    <g transform="matrix(1,0,0,1,-18,-262)">
        <path d="M113.8,303.1C120,303.1 132.2,319.1 132.2,321.2C132.2,322.5 119.9,313.2 113.7,313.2C107.5,313.2 95,322.4 95.1,321.1C95.1,318.9 107.6,303 113.8,303.1ZM105.3,291.7C111.1,289.6 128.1,300.5 128.8,302.4C129.2,303.6 114.5,299.1 108.7,301.2C102.9,303.3 94.3,316.2 93.9,315C93.2,313 99.5,293.8 105.3,291.7ZM49.3,351C43.5,353.1 26.5,342.2 25.8,340.3C25.4,339.1 40.1,343.6 45.9,341.5C51.7,339.4 60.3,326.5 60.7,327.7C61.5,329.7 55.2,348.9 49.3,351ZM93.5,283.9C98.3,279.9 117.9,284.3 119.3,285.9C120.1,286.9 104.7,287.7 100,291.6C95.2,295.6 91.6,310.6 90.8,309.6C89.4,308.1 88.7,287.9 93.5,283.9ZM61.2,358.8C56.4,362.8 36.8,358.4 35.4,356.8C34.6,355.8 50,355 54.7,351.1C59.5,347.1 63.1,332.1 63.9,333.1C65.3,334.6 65.9,354.8 61.2,358.8ZM79.7,280.7C82.8,275.4 102.8,272.7 104.6,273.8C105.7,274.4 91.5,280.5 88.4,285.8C85.3,291.2 87,306.5 85.9,305.9C84.1,304.8 76.6,286 79.7,280.7ZM75,362.1C71.9,367.4 51.9,370.1 50.1,369C49,368.4 63.2,362.3 66.3,357C69.4,351.6 67.7,336.3 68.8,336.9C70.5,338 78.1,356.7 75,362.1ZM65.6,282.3C66.7,276.2 84.6,266.9 86.6,267.3C87.9,267.5 76.6,278 75.5,284.1C74.4,290.2 81.3,304.1 80,303.8C78,303.5 64.5,288.4 65.6,282.3ZM89,360.4C87.9,366.5 70,375.8 68,375.4C66.7,375.2 78,364.7 79.1,358.6C80.2,352.5 73.3,338.6 74.6,338.9C76.6,339.3 90.1,354.3 89,360.4ZM53,288.7C52,282.6 65.6,267.8 67.6,267.4C68.9,267.2 61.9,280.9 62.9,287C64,293.1 75.2,303.8 73.9,304C71.9,304.3 54,294.8 53,288.7ZM101.7,354.1C102.7,360.2 89.1,375 87.1,375.4C85.8,375.6 92.8,361.9 91.8,355.8C90.7,349.7 79.5,339 80.8,338.8C82.8,338.4 100.6,348 101.7,354.1ZM43.3,299C40.2,293.6 48,275 49.8,274C50.9,273.4 49,288.7 52.1,294C55.2,299.4 69.4,305.6 68.2,306.2C66.4,307.2 46.3,304.3 43.3,299ZM111.4,343.8C114.5,349.2 106.7,367.8 104.9,368.8C103.8,369.4 105.7,354.1 102.6,348.8C99.5,343.4 85.3,337.2 86.5,336.6C88.3,335.5 108.3,338.4 111.4,343.8ZM37.7,312C33,308 33.9,287.9 35.2,286.3C36,285.3 39.5,300.3 44.2,304.3C48.9,308.3 64.4,309.3 63.5,310.3C62.2,311.8 42.4,316 37.7,312ZM117,330.8C121.7,334.8 120.8,354.9 119.5,356.5C118.7,357.5 115.2,342.5 110.5,338.5C105.8,334.5 90.3,333.5 91.2,332.5C92.5,330.9 112.3,326.8 117,330.8ZM36.8,326.1C31,324 25,304.7 25.7,302.8C26.1,301.6 34.5,314.5 40.3,316.7C46.1,318.8 61,314.5 60.5,315.7C59.8,317.6 42.6,328.2 36.8,326.1ZM117.8,316.6C123.6,318.7 129.6,338 128.9,339.9C128.5,341.1 120.1,328.2 114.3,326C108.5,323.9 93.6,328.2 94.1,327C94.8,325.2 112,314.5 117.8,316.6Z" style="fill:rgb(0,68,214);fill-rule:nonzero;"/>
    </g>
    <g transform="matrix(1,0,0,1,-18,-262)">
        <path d="M172.7,349.7L179.8,349.7L209.8,301.2L202,301.2L176.4,343.7L150.9,301.2L143,301.2L172.7,349.7M217,349.7L224.3,349.7L224.3,313.8L217,313.8L217,349.7M217,309.5L224.3,309.5C224.3,306.7 225.5,302.6 224.3,301.2C223.1,299.8 218.3,299.8 217,301.2C215.8,302.6 217,306.7 217,309.5M236.6,349.7L243.9,349.7L243.9,328.8C243.9,322.1 251.6,319.2 261.7,318.5L262.4,313.9C254.7,314.2 246.7,315 243.9,318.9L243.8,314.2L236.4,317.6L236.6,349.7M272.6,349.7L279.9,349.7L279.9,318.2L292,318.2L292,313.8L279.9,313.8L279.9,300.2L272.5,303.4L272.6,313.8L262.3,313.9L261.7,318.5L272.7,318.2L272.6,349.7M346.4,313.8L339.1,313.8L339.1,332.2C339.1,336.6 338.1,339.4 335.9,341.6C332.9,344.4 328.1,346.1 322.5,346.1C316.5,346.1 311.4,344.5 309,341.6C307.3,339.8 306.5,336.9 306.5,333.2L306.5,313.8L299.2,313.8L299.2,333.2C299.2,338.5 300.6,342.3 303.4,344.9C307.4,348.6 313.9,350.6 321.9,350.6C330.2,350.6 335.5,348.6 339.1,344.2L339.1,349.8L346.4,349.8L346.4,313.8M413.4,313.8L406.1,313.8L406.1,320.2C400.8,315.2 394.2,313 384.9,313C368.8,313 356.7,321.1 356.7,331.9C356.7,342.6 368.9,350.6 385.4,350.6C394.5,350.6 400.4,348.6 406.1,343.4L406.1,349.7L413.4,349.7L413.4,313.8M385.2,317.4C397,317.4 406.2,323.6 406.2,331.6C406.2,339.7 397.2,346.1 385.6,346.1C373.5,346.1 364.1,339.7 364.1,331.5C364.1,323.7 373.5,317.4 385.2,317.4M425.8,349.7L433.1,349.7L433.1,301.2L425.8,301.2L425.8,349.7M445.4,349.7L452.7,349.7L452.7,328.8C452.7,321.6 458.1,317.4 467.1,317.4C471.5,317.4 475.6,318.6 478.3,320.7C480.7,322.5 481.6,325 481.6,328.8L481.6,349.7L488.9,349.7L488.9,328.9C488.9,325.4 489.7,323.2 491.4,321.5C493.9,318.9 498.5,317.4 503.5,317.4C508.2,317.4 512.3,318.6 514.8,320.8C516.8,322.6 517.7,325.3 517.7,328.9L517.7,349.7L525,349.7L525,328.4C525,323.7 523.7,320.6 520.7,318C517,314.7 510.9,312.9 503.9,312.9C495.6,312.9 489.8,315.1 485.3,319.9C481.1,315.1 475.8,313 467.8,313C461,313 456.8,314.4 452.7,318L452.7,313.9L445.4,313.9L445.4,349.7M537.4,349.7L544.7,349.7L544.7,313.8L537.4,313.8L537.4,349.7M537.4,309.5L544.7,309.5C544.7,306.7 545.9,302.6 544.7,301.2C543.5,299.8 538.7,299.8 537.4,301.2C536.2,302.6 537.4,306.7 537.4,309.5M557,349.7L564.3,349.7L564.3,329.9C564.3,325.9 565.1,323.8 567.1,321.8C569.9,319 574.9,317.4 580.6,317.4C585.9,317.4 590.7,318.8 593.6,321.3C596.1,323.5 597.1,326.2 597.1,330.9L597.1,349.7L604.4,349.7L604.4,330.9C604.4,324.9 603.1,321.6 599.7,318.6C595.5,315.1 589,313 581.5,313C574.4,313 568.8,314.8 564.3,318.5L564.3,313.8L557,313.8L557,349.7" style="fill:rgb(0,68,214);fill-rule:nonzero;"/>
    </g>
    <g transform="matrix(1,0,0,1,-18,-262)">
        <path d="M603.9,301L603.9,290.9L600.1,290.9L600.1,289.5L609.2,289.5L609.2,290.9L605.4,290.9L605.4,301L603.9,301ZM611.5,301L611.5,289.5L613.8,289.5L616.5,297.6C616.8,298.4 616.9,298.9 617,299.3C617.1,298.9 617.3,298.3 617.6,297.5L620.3,289.5L622.3,289.5L622.3,301L621,301L621,291.4L617.7,301L616.3,301L613,291.2L613,301L611.5,301Z" style="fill:rgb(0,51,128);fill-rule:nonzero;"/>
    </g>
</svg>
